# Blender 4.1.1
# www.blender.org
mtllib Tooth.mtl
o Sphere.007
v 0.000000 2.459060 -0.923880
v 0.000000 -3.012829 -0.923880
v 0.000000 -3.308897 -0.382683
v 0.146447 2.755129 -0.353553
v 0.270598 2.636540 -0.653281
v 0.353553 2.459060 -0.853553
v 0.353553 -3.012829 -0.853553
v 0.270598 -3.190309 -0.653281
v 0.146447 -3.308897 -0.353553
v 0.270598 2.755129 -0.270598
v 0.500000 2.636540 -0.500000
v 0.653282 2.459060 -0.653281
v 0.653282 -3.012829 -0.653281
v 0.500000 -3.190309 -0.500000
v 0.270598 -3.308897 -0.270598
v 0.353553 2.755129 -0.146447
v 0.653281 2.636540 -0.270598
v 0.853553 2.459060 -0.353553
v 0.853553 -3.012829 -0.353553
v 0.653281 -3.190309 -0.270598
v 0.353553 -3.308897 -0.146447
v 0.382683 2.755129 0.000000
v 0.707107 2.636540 0.000000
v 0.923880 2.459060 0.000000
v 0.923880 -3.012829 0.000000
v 0.707107 -3.190309 0.000000
v 0.382683 -3.308897 0.000000
v 0.353553 2.755129 0.146447
v 0.653281 2.636540 0.270598
v 0.853553 2.459060 0.353554
v 0.853553 -3.012829 0.353554
v 0.653281 -3.190309 0.270598
v 0.353553 -3.308897 0.146447
v 0.270598 2.755129 0.270598
v 0.500000 2.636540 0.500000
v 0.653281 2.459060 0.653282
v 0.653281 -3.012829 0.653282
v 0.500000 -3.190309 0.500000
v 0.270598 -3.308897 0.270598
v 0.146447 2.755129 0.353553
v 0.270598 2.636540 0.653281
v 0.353553 2.459060 0.853553
v 0.353553 -3.012829 0.853553
v 0.270598 -3.190309 0.653281
v 0.146447 -3.308897 0.353553
v -0.000000 2.755129 0.382683
v -0.000000 2.636540 0.707107
v -0.000000 2.459060 0.923879
v -0.000000 -3.012829 0.923879
v -0.000000 -3.190309 0.707107
v -0.000000 -3.308897 0.382683
v 0.000000 -3.350540 0.000000
v 0.000000 2.796772 0.000000
v -0.146447 2.755129 0.353553
v -0.270598 2.636540 0.653281
v -0.353554 2.459060 0.853553
v -0.353554 -3.012829 0.853553
v -0.270598 -3.190309 0.653281
v -0.146447 -3.308897 0.353553
v -0.270598 2.755129 0.270598
v -0.500000 2.636540 0.500000
v -0.653282 2.459060 0.653281
v -0.653282 -3.012829 0.653281
v -0.500000 -3.190309 0.500000
v -0.270598 -3.308897 0.270598
v -0.353553 2.755129 0.146446
v -0.653281 2.636540 0.270598
v -0.853553 2.459060 0.353553
v -0.853553 -3.012829 0.353553
v -0.653281 -3.190309 0.270598
v -0.353553 -3.308897 0.146446
v -0.382683 2.755129 -0.000000
v -0.707107 2.636540 -0.000000
v -0.923879 2.459060 -0.000000
v -0.923879 -3.012829 -0.000000
v -0.707107 -3.190309 -0.000000
v -0.382683 -3.308897 -0.000000
v -0.353553 2.755129 -0.146447
v -0.653281 2.636540 -0.270598
v -0.853553 2.459060 -0.353554
v -0.853553 -3.012829 -0.353554
v -0.653281 -3.190309 -0.270598
v -0.353553 -3.308897 -0.146447
v -0.270598 2.755129 -0.270598
v -0.500000 2.636540 -0.500000
v -0.653281 2.459060 -0.653282
v -0.653281 -3.012829 -0.653282
v -0.500000 -3.190309 -0.500000
v -0.270598 -3.308897 -0.270598
v -0.146446 2.755129 -0.353554
v -0.270598 2.636540 -0.653281
v -0.353553 2.459060 -0.853553
v -0.353553 -3.012829 -0.853553
v -0.270598 -3.190309 -0.653281
v -0.146446 -3.308897 -0.353554
v 0.000000 2.755129 -0.382683
v 0.000000 2.636540 -0.707107
v 0.000000 -3.190309 -0.707107
v 0.000000 -2.824601 -0.992319
v 0.000000 2.270833 -0.992319
v 0.000000 2.249708 -0.995501
v 0.379744 2.270833 -0.916783
v 0.379744 -2.824601 -0.916783
v 0.380962 2.249708 -0.919722
v 0.701675 2.270833 -0.701675
v 0.701675 -2.824601 -0.701675
v 0.703925 2.249708 -0.703925
v 0.916783 2.270833 -0.379744
v 0.916783 -2.824601 -0.379744
v 0.919723 2.249708 -0.380961
v 0.992319 2.270833 0.000000
v 0.992319 -2.824601 0.000000
v 0.995501 2.249708 0.000000
v 0.916783 2.270833 0.379744
v 0.916783 -2.824601 0.379744
v 0.919722 2.249708 0.380962
v 0.701675 2.270833 0.701676
v 0.701675 -2.824601 0.701676
v 0.703925 2.249708 0.703925
v 0.379744 2.270833 0.916783
v 0.379744 -2.824601 0.916783
v 0.380961 2.249708 0.919723
v -0.000000 2.270833 0.992319
v -0.000000 -2.824601 0.992319
v -0.000000 2.249708 0.995501
v -0.379744 2.270833 0.916783
v -0.379744 -2.824601 0.916783
v -0.380962 2.249708 0.919722
v -0.701676 2.270833 0.701675
v -0.701676 -2.824601 0.701675
v -0.703925 2.249708 0.703925
v -0.916783 2.270833 0.379744
v -0.916783 -2.824601 0.379744
v -0.919723 2.249708 0.380961
v -0.992319 2.270833 -0.000000
v -0.992319 -2.824601 -0.000000
v -0.995500 2.249708 -0.000000
v -0.916783 2.270833 -0.379744
v -0.916783 -2.824601 -0.379744
v -0.919722 2.249708 -0.380962
v -0.701675 2.270833 -0.701676
v -0.701675 -2.824601 -0.701676
v -0.703925 2.249708 -0.703925
v -0.379743 2.270833 -0.916783
v -0.379743 -2.824601 -0.916783
v -0.380961 2.249708 -0.919723
vn -0.0000 0.5633 -0.8262
vn -0.0000 -0.5633 -0.8262
vn -0.0000 -0.9704 -0.2416
vn 0.0925 0.9704 -0.2232
vn 0.1955 0.8597 -0.4719
vn 0.3162 0.5633 -0.7633
vn 0.3162 -0.5633 -0.7633
vn 0.1955 -0.8597 -0.4719
vn 0.0925 -0.9704 -0.2232
vn 0.1709 0.9704 -0.1709
vn 0.3612 0.8597 -0.3612
vn 0.5842 0.5633 -0.5842
vn 0.5842 -0.5633 -0.5842
vn 0.3612 -0.8597 -0.3612
vn 0.1709 -0.9704 -0.1709
vn 0.2232 0.9704 -0.0925
vn 0.4719 0.8597 -0.1955
vn 0.7633 0.5633 -0.3162
vn 0.7633 -0.5633 -0.3162
vn 0.4719 -0.8597 -0.1955
vn 0.2232 -0.9704 -0.0925
vn 0.2416 0.9704 -0.0000
vn 0.5108 0.8597 -0.0000
vn 0.8262 0.5633 -0.0000
vn 0.8262 -0.5633 -0.0000
vn 0.5108 -0.8597 -0.0000
vn 0.2416 -0.9704 -0.0000
vn 0.2232 0.9704 0.0925
vn 0.4719 0.8597 0.1955
vn 0.7633 0.5633 0.3162
vn 0.7633 -0.5633 0.3162
vn 0.4719 -0.8597 0.1955
vn 0.2232 -0.9704 0.0925
vn 0.1709 0.9704 0.1709
vn 0.3612 0.8597 0.3612
vn 0.5842 0.5633 0.5842
vn 0.5842 -0.5633 0.5842
vn 0.3612 -0.8597 0.3612
vn 0.1708 -0.9704 0.1709
vn 0.0925 0.9704 0.2232
vn 0.1955 0.8597 0.4719
vn 0.3162 0.5633 0.7633
vn 0.3162 -0.5633 0.7633
vn 0.1955 -0.8597 0.4719
vn 0.0925 -0.9704 0.2232
vn -0.0000 0.9704 0.2416
vn -0.0000 0.8597 0.5108
vn -0.0000 0.5633 0.8262
vn -0.0000 -0.5633 0.8262
vn -0.0000 -0.8597 0.5108
vn -0.0000 -0.9704 0.2416
vn -0.0000 -1.0000 -0.0000
vn -0.0000 1.0000 -0.0000
vn -0.0925 0.9704 0.2232
vn -0.1955 0.8597 0.4719
vn -0.3162 0.5633 0.7633
vn -0.3162 -0.5633 0.7633
vn -0.1955 -0.8597 0.4719
vn -0.0925 -0.9704 0.2232
vn -0.1709 0.9704 0.1709
vn -0.3612 0.8597 0.3612
vn -0.5842 0.5633 0.5842
vn -0.5842 -0.5633 0.5842
vn -0.3612 -0.8597 0.3612
vn -0.1709 -0.9704 0.1709
vn -0.2232 0.9704 0.0925
vn -0.4719 0.8597 0.1955
vn -0.7633 0.5633 0.3162
vn -0.7633 -0.5633 0.3162
vn -0.4719 -0.8597 0.1955
vn -0.2232 -0.9704 0.0925
vn -0.2416 0.9704 -0.0000
vn -0.5108 0.8597 -0.0000
vn -0.8262 0.5633 -0.0000
vn -0.8262 -0.5633 -0.0000
vn -0.5108 -0.8597 -0.0000
vn -0.2416 -0.9704 -0.0000
vn -0.2232 0.9704 -0.0925
vn -0.4719 0.8597 -0.1955
vn -0.7633 0.5633 -0.3162
vn -0.7633 -0.5633 -0.3162
vn -0.4719 -0.8597 -0.1955
vn -0.2232 -0.9704 -0.0925
vn -0.1709 0.9704 -0.1709
vn -0.3612 0.8597 -0.3612
vn -0.5842 0.5633 -0.5842
vn -0.5842 -0.5633 -0.5842
vn -0.3612 -0.8597 -0.3612
vn -0.1709 -0.9704 -0.1709
vn -0.0925 0.9704 -0.2232
vn -0.1955 0.8597 -0.4719
vn -0.3162 0.5633 -0.7633
vn -0.3162 -0.5633 -0.7633
vn -0.1955 -0.8597 -0.4719
vn -0.0925 -0.9704 -0.2232
vn -0.0000 0.9704 -0.2416
vn -0.0000 0.8597 -0.5108
vn -0.0000 -0.8597 -0.5108
vn -0.0000 -0.1702 -0.9854
vn -0.0000 0.2436 -0.9699
vn -0.0000 0.0737 -0.9973
vn 0.3712 0.2436 -0.8960
vn 0.3771 -0.1702 -0.9104
vn 0.3816 0.0737 -0.9214
vn 0.6858 0.2436 -0.6858
vn 0.6968 -0.1702 -0.6968
vn 0.7052 0.0737 -0.7052
vn 0.8960 0.2436 -0.3712
vn 0.9104 -0.1702 -0.3771
vn 0.9214 0.0737 -0.3816
vn 0.9699 0.2436 -0.0000
vn 0.9854 -0.1702 -0.0000
vn 0.9973 0.0737 -0.0000
vn 0.8960 0.2436 0.3712
vn 0.9104 -0.1702 0.3771
vn 0.9214 0.0737 0.3816
vn 0.6858 0.2436 0.6858
vn 0.6968 -0.1702 0.6968
vn 0.7052 0.0737 0.7052
vn 0.3712 0.2436 0.8960
vn 0.3771 -0.1702 0.9104
vn 0.3816 0.0737 0.9214
vn -0.0000 0.2436 0.9699
vn -0.0000 -0.1702 0.9854
vn -0.0000 0.0737 0.9973
vn -0.3712 0.2436 0.8960
vn -0.3771 -0.1702 0.9104
vn -0.3816 0.0737 0.9214
vn -0.6858 0.2436 0.6858
vn -0.6968 -0.1702 0.6968
vn -0.7052 0.0737 0.7052
vn -0.8960 0.2436 0.3712
vn -0.9104 -0.1702 0.3771
vn -0.9214 0.0737 0.3816
vn -0.9699 0.2436 -0.0000
vn -0.9854 -0.1702 -0.0000
vn -0.9973 0.0737 -0.0000
vn -0.8960 0.2436 -0.3712
vn -0.9104 -0.1702 -0.3771
vn -0.9214 0.0737 -0.3816
vn -0.6858 0.2436 -0.6858
vn -0.6968 -0.1702 -0.6968
vn -0.7052 0.0737 -0.7052
vn -0.3712 0.2436 -0.8960
vn -0.3771 -0.1702 -0.9104
vn -0.3816 0.0737 -0.9214
vt 0.102981 0.826503
vt 0.136164 0.848675
vt 0.125153 0.859686
vt 0.164295 0.867471
vt 0.183091 0.880031
vt 0.156509 0.906613
vt 0.143950 0.887816
vt 0.442755 0.591046
vt 0.438790 0.571667
vt 0.476094 0.572278
vt 0.477487 0.591615
vt 0.255737 0.767109
vt 0.283868 0.748313
vt 0.294878 0.759324
vt 0.276082 0.787454
vt 0.516472 0.041313
vt 0.515079 0.021423
vt 0.549811 0.020854
vt 0.553776 0.040702
vt 0.236941 0.779669
vt 0.263523 0.806251
vt 0.317050 0.726141
vt 0.117368 0.898827
vt 0.110767 0.865644
vt 0.576393 0.019802
vt 0.582327 0.039573
vt 0.302664 0.798465
vt 0.298254 0.820637
vt 0.309265 0.765283
vt 0.121778 0.920999
vt 0.515079 0.591615
vt 0.516472 0.572278
vt 0.553776 0.571667
vt 0.549811 0.591046
vt 0.752646 0.039591
vt 0.756611 0.019742
vt 0.791342 0.020311
vt 0.789950 0.040202
vt 0.331437 0.798465
vt 0.335847 0.820637
vt 0.324836 0.765283
vt 0.095196 0.865644
vt 0.084185 0.920999
vt 0.088595 0.898827
vt 0.582327 0.570537
vt 0.576393 0.589995
vt 0.080809 0.859686
vt 0.049454 0.906613
vt 0.062013 0.887816
vt 0.756611 0.589935
vt 0.752646 0.570555
vt 0.789950 0.571166
vt 0.791342 0.590504
vt 0.339222 0.759324
vt 0.358019 0.787454
vt 0.828935 0.020311
vt 0.830328 0.040202
vt 0.370578 0.806251
vt 0.830328 0.571166
vt 0.828935 0.590504
vt 0.350233 0.748313
vt 0.378364 0.767109
vt 0.041668 0.867471
vt 0.069799 0.848675
vt 0.863666 0.019742
vt 0.867632 0.039591
vt 0.397160 0.779669
vt 0.022872 0.880031
vt 0.030657 0.840889
vt 0.063840 0.834289
vt 0.221756 0.040514
vt 0.227691 0.020743
vt 0.254273 0.021795
vt 0.250308 0.041643
vt 0.389374 0.740527
vt 0.411546 0.744937
vt 0.356192 0.733927
vt 0.008485 0.845299
vt 0.867632 0.570555
vt 0.863666 0.589935
vt 0.389374 0.711755
vt 0.411546 0.707345
vt 0.356192 0.718355
vt 0.063840 0.818717
vt 0.008485 0.807707
vt 0.030657 0.812117
vt 0.227691 0.590936
vt 0.221756 0.571478
vt 0.250308 0.572608
vt 0.254273 0.591987
vt 0.289004 0.022364
vt 0.287612 0.042254
vt 0.069799 0.804331
vt 0.022872 0.772975
vt 0.041668 0.785535
vt 0.287612 0.573219
vt 0.289004 0.592556
vt 0.350233 0.703969
vt 0.378364 0.685173
vt 0.326597 0.022364
vt 0.327989 0.042254
vt 0.397160 0.672613
vt 0.339222 0.692958
vt 0.358019 0.664828
vt 0.062013 0.765190
vt 0.080809 0.793320
vt 0.361328 0.021795
vt 0.365294 0.041643
vt 0.370578 0.646031
vt 0.049454 0.746393
vt 0.327989 0.573219
vt 0.326597 0.592556
vt 0.088595 0.754179
vt 0.095196 0.787361
vt 0.387910 0.020743
vt 0.393845 0.040514
vt 0.331437 0.653817
vt 0.335847 0.631645
vt 0.324836 0.686999
vt 0.084185 0.732007
vt 0.365294 0.572608
vt 0.361328 0.591987
vt 0.309265 0.686999
vt 0.110767 0.787361
vt 0.121778 0.732007
vt 0.117368 0.754179
vt 0.393845 0.571478
vt 0.387910 0.590936
vt 0.302664 0.653817
vt 0.626436 0.038213
vt 0.630402 0.018365
vt 0.665133 0.018933
vt 0.663740 0.038824
vt 0.298254 0.631645
vt 0.156509 0.746393
vt 0.143950 0.765190
vt 0.630402 0.588557
vt 0.626436 0.569178
vt 0.663740 0.569789
vt 0.665133 0.589126
vt 0.294878 0.692958
vt 0.276082 0.664828
vt 0.125153 0.793320
vt 0.702726 0.018933
vt 0.704118 0.038824
vt 0.263523 0.646031
vt 0.164295 0.785535
vt 0.136164 0.804331
vt 0.737457 0.018365
vt 0.741422 0.038213
vt 0.255737 0.685173
vt 0.236941 0.672613
vt 0.283868 0.703969
vt 0.183091 0.772975
vt 0.704118 0.569789
vt 0.702726 0.589126
vt 0.410239 0.039573
vt 0.416173 0.019802
vt 0.442755 0.020854
vt 0.438790 0.040702
vt 0.244726 0.711755
vt 0.222554 0.707345
vt 0.277909 0.718355
vt 0.142123 0.818717
vt 0.197477 0.807707
vt 0.175305 0.812117
vt 0.741422 0.569178
vt 0.737457 0.588557
vt 0.142123 0.834289
vt 0.197477 0.845299
vt 0.175305 0.840889
vt 0.416173 0.589995
vt 0.410239 0.570537
vt 0.277909 0.733927
vt 0.244726 0.740527
vt 0.222554 0.744937
vt 0.476094 0.041313
vt 0.477487 0.021423
vt 0.476030 0.043528
vt 0.516537 0.043528
vt 0.553960 0.042915
vt 0.582603 0.041782
vt 0.752461 0.041803
vt 0.789885 0.042416
vt 0.830392 0.042416
vt 0.867816 0.041803
vt 0.221481 0.042723
vt 0.250123 0.043856
vt 0.287547 0.044469
vt 0.328054 0.044469
vt 0.365478 0.043856
vt 0.394121 0.042723
vt 0.626252 0.040425
vt 0.597609 0.039293
vt 0.597885 0.037084
vt 0.663676 0.041039
vt 0.704183 0.041039
vt 0.741606 0.040425
vt 0.409963 0.041782
vt 0.438606 0.042915
s 1
usemtl SmallParts_Lock
f 52/1/52 3/2/3 9/3/9
f 98/4/98 2/5/2 7/6/7 8/7/8
f 93/8/93 145/9/145 99/10/99 2/11/2
f 97/12/97 96/13/96 4/14/4 5/15/5
f 3/2/3 98/4/98 8/7/8 9/3/9
f 102/16/102 6/17/6 12/18/12 105/19/105
f 1/20/1 97/12/97 5/15/5 6/21/6
f 96/13/96 53/22/53 4/14/4
f 9/3/9 8/7/8 14/23/14 15/24/15
f 105/19/105 12/18/12 18/25/18 108/26/108
f 6/21/6 5/15/5 11/27/11 12/28/12
f 4/14/4 53/22/53 10/29/10
f 52/1/52 9/3/9 15/24/15
f 8/7/8 7/6/7 13/30/13 14/23/14
f 7/31/7 103/32/103 106/33/106 13/34/13
f 5/15/5 4/14/4 10/29/10 11/27/11
f 108/35/108 18/36/18 24/37/24 111/38/111
f 12/28/12 11/27/11 17/39/17 18/40/18
f 10/29/10 53/22/53 16/41/16
f 52/1/52 15/24/15 21/42/21
f 14/23/14 13/30/13 19/43/19 20/44/20
f 13/34/13 106/33/106 109/45/109 19/46/19
f 11/27/11 10/29/10 16/41/16 17/39/17
f 15/24/15 14/23/14 20/44/20 21/42/21
f 52/1/52 21/42/21 27/47/27
f 20/44/20 19/43/19 25/48/25 26/49/26
f 19/50/19 109/51/109 112/52/112 25/53/25
f 17/39/17 16/41/16 22/54/22 23/55/23
f 21/42/21 20/44/20 26/49/26 27/47/27
f 111/38/111 24/37/24 30/56/30 114/57/114
f 18/40/18 17/39/17 23/55/23 24/58/24
f 16/41/16 53/22/53 22/54/22
f 25/53/25 112/52/112 115/59/115 31/60/31
f 23/55/23 22/54/22 28/61/28 29/62/29
f 27/47/27 26/49/26 32/63/32 33/64/33
f 114/57/114 30/56/30 36/65/36 117/66/117
f 24/58/24 23/55/23 29/62/29 30/67/30
f 22/54/22 53/22/53 28/61/28
f 52/1/52 27/47/27 33/64/33
f 26/49/26 25/48/25 31/68/31 32/63/32
f 33/64/33 32/63/32 38/69/38 39/70/39
f 117/71/117 36/72/36 42/73/42 120/74/120
f 30/67/30 29/62/29 35/75/35 36/76/36
f 28/61/28 53/22/53 34/77/34
f 52/1/52 33/64/33 39/70/39
f 32/63/32 31/68/31 37/78/37 38/69/38
f 31/60/31 115/59/115 118/79/118 37/80/37
f 29/62/29 28/61/28 34/77/34 35/75/35
f 36/76/36 35/75/35 41/81/41 42/82/42
f 34/77/34 53/22/53 40/83/40
f 52/1/52 39/70/39 45/84/45
f 38/69/38 37/78/37 43/85/43 44/86/44
f 37/87/37 118/88/118 121/89/121 43/90/43
f 35/75/35 34/77/34 40/83/40 41/81/41
f 39/70/39 38/69/38 44/86/44 45/84/45
f 120/74/120 42/73/42 48/91/48 123/92/123
f 52/1/52 45/84/45 51/93/51
f 44/86/44 43/85/43 49/94/49 50/95/50
f 43/90/43 121/89/121 124/96/124 49/97/49
f 41/81/41 40/83/40 46/98/46 47/99/47
f 45/84/45 44/86/44 50/95/50 51/93/51
f 123/92/123 48/91/48 56/100/56 126/101/126
f 42/82/42 41/81/41 47/99/47 48/102/48
f 40/83/40 53/22/53 46/98/46
f 47/99/47 46/98/46 54/103/54 55/104/55
f 51/93/51 50/95/50 58/105/58 59/106/59
f 126/101/126 56/100/56 62/107/62 129/108/129
f 48/102/48 47/99/47 55/104/55 56/109/56
f 46/98/46 53/22/53 54/103/54
f 52/1/52 51/93/51 59/106/59
f 50/95/50 49/94/49 57/110/57 58/105/58
f 49/97/49 124/96/124 127/111/127 57/112/57
f 59/106/59 58/105/58 64/113/64 65/114/65
f 129/108/129 62/107/62 68/115/68 132/116/132
f 56/109/56 55/104/55 61/117/61 62/118/62
f 54/103/54 53/22/53 60/119/60
f 52/1/52 59/106/59 65/114/65
f 58/105/58 57/110/57 63/120/63 64/113/64
f 57/112/57 127/111/127 130/121/130 63/122/63
f 55/104/55 54/103/54 60/119/60 61/117/61
f 60/119/60 53/22/53 66/123/66
f 52/1/52 65/114/65 71/124/71
f 64/113/64 63/120/63 69/125/69 70/126/70
f 63/122/63 130/121/130 133/127/133 69/128/69
f 61/117/61 60/119/60 66/123/66 67/129/67
f 65/114/65 64/113/64 70/126/70 71/124/71
f 132/130/132 68/131/68 74/132/74 135/133/135
f 62/118/62 61/117/61 67/129/67 68/134/68
f 70/126/70 69/125/69 75/135/75 76/136/76
f 69/137/69 133/138/133 136/139/136 75/140/75
f 67/129/67 66/123/66 72/141/72 73/142/73
f 71/124/71 70/126/70 76/136/76 77/143/77
f 135/133/135 74/132/74 80/144/80 138/145/138
f 68/134/68 67/129/67 73/142/73 74/146/74
f 66/123/66 53/22/53 72/141/72
f 52/1/52 71/124/71 77/143/77
f 77/143/77 76/136/76 82/147/82 83/148/83
f 138/145/138 80/144/80 86/149/86 141/150/141
f 74/146/74 73/142/73 79/151/79 80/152/80
f 72/141/72 53/22/53 78/153/78
f 52/1/52 77/143/77 83/148/83
f 76/136/76 75/135/75 81/154/81 82/147/82
f 75/140/75 136/139/136 139/155/139 81/156/81
f 73/142/73 72/141/72 78/153/78 79/151/79
f 141/157/141 86/158/86 92/159/92 144/160/144
f 80/152/80 79/151/79 85/161/85 86/162/86
f 78/153/78 53/22/53 84/163/84
f 52/1/52 83/148/83 89/164/89
f 82/147/82 81/154/81 87/165/87 88/166/88
f 81/156/81 139/155/139 142/167/142 87/168/87
f 79/151/79 78/153/78 84/163/84 85/161/85
f 83/148/83 82/147/82 88/166/88 89/164/89
f 52/1/52 89/164/89 95/169/95
f 88/166/88 87/165/87 93/170/93 94/171/94
f 87/172/87 142/173/142 145/9/145 93/8/93
f 85/161/85 84/163/84 90/174/90 91/175/91
f 89/164/89 88/166/88 94/171/94 95/169/95
f 86/162/86 85/161/85 91/175/91 92/176/92
f 84/163/84 53/22/53 90/174/90
f 100/177/100 1/178/1 6/17/6 102/16/102
f 91/175/91 90/174/90 96/13/96 97/12/97
f 95/169/95 94/171/94 98/4/98 3/2/3
f 2/11/2 99/10/99 103/32/103 7/31/7
f 92/176/92 91/175/91 97/12/97 1/20/1
f 90/174/90 53/22/53 96/13/96
f 52/1/52 95/169/95 3/2/3
f 94/171/94 93/170/93 2/5/2 98/4/98
f 103/32/103 99/10/99 101/179/101 104/180/104
f 104/180/104 101/179/101 100/177/100 102/16/102
f 102/16/102 105/19/105 107/181/107 104/180/104
f 104/180/104 107/181/107 106/33/106 103/32/103
f 105/19/105 108/26/108 110/182/110 107/181/107
f 107/181/107 110/182/110 109/45/109 106/33/106
f 112/52/112 109/51/109 110/183/110 113/184/113
f 113/184/113 110/183/110 108/35/108 111/38/111
f 115/59/115 112/52/112 113/184/113 116/185/116
f 116/185/116 113/184/113 111/38/111 114/57/114
f 114/57/114 117/66/117 119/186/119 116/185/116
f 116/185/116 119/186/119 118/79/118 115/59/115
f 121/89/121 118/88/118 119/187/119 122/188/122
f 122/188/122 119/187/119 117/71/117 120/74/120
f 124/96/124 121/89/121 122/188/122 125/189/125
f 125/189/125 122/188/122 120/74/120 123/92/123
f 123/92/123 126/101/126 128/190/128 125/189/125
f 125/189/125 128/190/128 127/111/127 124/96/124
f 126/101/126 129/108/129 131/191/131 128/190/128
f 128/190/128 131/191/131 130/121/130 127/111/127
f 133/127/133 130/121/130 131/191/131 134/192/134
f 134/193/134 131/194/131 129/195/129 132/130/132
f 136/139/136 133/138/133 134/193/134 137/196/137
f 137/196/137 134/193/134 132/130/132 135/133/135
f 135/133/135 138/145/138 140/197/140 137/196/137
f 137/196/137 140/197/140 139/155/139 136/139/136
f 138/145/138 141/150/141 143/198/143 140/197/140
f 140/197/140 143/198/143 142/167/142 139/155/139
f 145/9/145 142/173/142 143/199/143 146/200/146
f 146/200/146 143/199/143 141/157/141 144/160/144
f 99/10/99 145/9/145 146/200/146 101/179/101
f 101/179/101 146/200/146 144/160/144 100/177/100
f 144/160/144 92/159/92 1/178/1 100/177/100
