# Blender 4.1.1
# www.blender.org
mtllib Lock_1_1.mtl
o Middle
v -0.005795 0.576948 2.437942
v -0.005795 0.624484 2.185526
v -0.005795 -0.238980 2.775910
v -0.005795 -0.441577 2.640539
v -0.005795 -0.576948 2.437942
v -0.005795 -0.624484 2.185526
v -0.005795 0.000000 2.823446
v -0.097248 -0.220788 2.775910
v -0.174779 -0.407964 2.640539
v -0.226583 -0.580443 2.437942
v -0.244775 -0.624360 2.185526
v -0.174779 -0.168984 2.775910
v -0.318037 -0.312242 2.640539
v -0.413759 -0.538181 2.437942
v -0.447372 -0.571794 2.185526
v -0.226583 -0.091453 2.775910
v -0.413759 -0.168984 2.640539
v -0.538825 -0.220788 2.437942
v -0.582743 -0.238979 2.185526
v -0.244774 0.000000 2.775910
v -0.447372 0.000000 2.640539
v -0.582743 0.000000 2.437942
v -0.630279 0.000000 2.185526
v -0.226583 0.091454 2.775910
v -0.413758 0.168984 2.640539
v -0.538825 0.220789 2.437942
v -0.582743 0.238980 2.185526
v -0.174779 0.168984 2.775910
v -0.318036 0.312242 2.640539
v -0.413758 0.407964 2.437942
v -0.447371 0.441577 2.185526
v -0.097248 0.220789 2.775910
v -0.174779 0.407964 2.640539
v -0.226583 0.533031 2.437942
v -0.244774 0.576948 2.185526
v -0.005795 0.238980 2.775910
v -0.005794 0.441577 2.640539
v -0.005795 0.998840 2.185526
v -0.005795 -0.624484 -2.622632
v -0.244775 -0.624360 -2.622632
v -0.447372 -0.571794 -2.622632
v -0.582743 -0.238979 -2.622632
v -0.630279 0.000000 -2.622632
v -0.582743 0.238980 -2.622632
v -0.447371 0.441577 -2.622632
v -0.244774 0.576948 -2.622632
v -0.005795 -1.004471 3.003804
v -0.005795 -1.004471 2.185526
v -0.005795 0.998840 3.003804
v -0.005795 -1.004471 -2.622632
v -0.244774 1.000754 2.185526
v -0.244774 1.000754 -2.622632
v -0.005795 -0.002815 3.157430
v -0.268963 0.995012 3.003800
v -0.726770 0.709430 3.003800
v -0.944255 0.383941 3.003800
v -1.020625 0.000000 3.003800
v -0.944255 -0.383940 3.003800
v -0.726771 -0.709429 3.003800
v -0.401281 -0.926914 3.003800
v -0.401281 0.926915 3.003800
v -0.726770 0.709430 -2.622630
v -0.944255 0.383941 -2.622630
v -1.020625 0.000000 -2.622630
v -0.944255 -0.383940 -2.622630
v -0.726771 -0.709429 -2.622630
v -0.401281 -0.926914 -2.622630
v -0.401281 0.926915 -2.622630
v -0.944255 -0.383940 2.192886
v -0.944255 0.383941 2.192886
v -1.020625 0.000000 2.192886
v -0.726771 -0.709429 2.192886
v -0.401281 -0.926914 2.192886
v -0.726770 0.709430 2.192886
v -0.401281 0.926915 2.192886
vn -0.0034 0.9960 -0.0894
vn 0.1227 0.9886 -0.0876
vn 0.1468 0.8877 -0.4364
vn 0.0279 0.9135 -0.4059
vn 0.0845 0.6913 -0.7176
vn 0.1906 0.6305 -0.7524
vn 0.1543 0.3724 -0.9152
vn 0.0799 0.4018 -0.9122
vn 0.1289 -0.0000 -0.9917
vn 0.4781 0.4433 -0.7582
vn 0.2850 0.2850 -0.9152
vn 0.2661 0.6371 -0.7234
vn 0.2432 0.9664 -0.0831
vn 0.2329 0.9574 -0.1709
vn 0.8608 0.3663 -0.3533
vn 0.8790 0.2748 -0.3897
vn 0.6629 0.2383 -0.7098
vn 0.3724 0.1543 -0.9152
vn 0.9237 0.3730 -0.0872
vn 0.9542 0.2853 -0.0901
vn 0.4031 -0.0000 -0.9152
vn 0.9958 -0.0000 -0.0919
vn 0.9292 -0.0000 -0.3695
vn 0.7189 -0.0000 -0.6952
vn 0.9200 -0.3811 -0.0919
vn 0.8585 -0.3556 -0.3695
vn 0.6641 -0.2751 -0.6952
vn 0.3724 -0.1543 -0.9152
vn 0.6571 -0.6571 -0.3695
vn 0.5083 -0.5083 -0.6952
vn 0.2850 -0.2850 -0.9152
vn 0.7041 -0.7041 -0.0919
vn 0.3556 -0.8585 -0.3695
vn 0.2751 -0.6641 -0.6952
vn 0.1543 -0.3724 -0.9152
vn 0.4412 -0.8890 -0.1226
vn 0.1918 -0.9645 -0.1816
vn 0.1818 -0.9137 -0.3634
vn 0.1415 -0.7116 -0.6882
vn 0.0799 -0.4018 -0.9122
vn -0.1060 0.1059 0.9887
vn -0.0975 -0.0011 0.9952
vn -0.0763 0.1309 0.9885
vn 1.0000 -0.0000 -0.0000
vn 0.9239 -0.3827 -0.0000
vn 0.7071 -0.7071 -0.0000
vn 0.0005 1.0000 -0.0000
vn 0.1268 0.9919 -0.0000
vn 0.9579 0.2872 -0.0000
vn 0.5556 -0.8315 -0.0000
vn -0.0000 -0.0000 -1.0000
vn 0.2511 0.9679 -0.0000
vn 0.9263 0.3768 -0.0000
vn -0.2936 0.9559 -0.0014
vn -0.2306 0.9730 0.0014
vn -0.0025 1.0000 -0.0009
vn -0.0051 1.0000 0.0077
vn -1.0000 -0.0000 -0.0000
vn -0.9239 -0.3827 -0.0000
vn -0.9239 0.3827 -0.0000
vn -0.7071 0.7071 -0.0000
vn -0.4961 0.8683 -0.0009
vn -0.4925 0.8703 -0.0000
vn -0.3826 -0.9239 -0.0000
vn -0.7071 -0.7071 -0.0000
vn -0.3808 -0.9246 -0.0011
vn -0.1945 -0.9809 -0.0000
vn -0.1906 -0.9817 0.0018
vn -0.3830 -0.9238 0.0010
vn -0.1959 -0.9806 -0.0000
vn -0.0000 0.0022 -1.0000
vn -0.4994 0.8664 -0.0017
vn -0.1497 -0.0000 0.9887
vn -0.1383 0.0572 0.9887
vn -0.1065 -0.1063 0.9886
vn -0.1386 -0.0573 0.9887
vn -0.4267 0.9044 -0.0000
vn -0.0359 0.1428 0.9891
vn -0.0066 0.1528 0.9882
vn -0.0577 -0.1432 0.9880
vn -0.0297 -0.1515 0.9880
vt 0.470083 0.598852
vt 0.453628 0.598834
vt 0.455022 0.580828
vt 0.470239 0.580831
vt 0.198371 0.846671
vt 0.186765 0.844148
vt 0.192822 0.830970
vt 0.199103 0.832336
vt 0.459257 0.565875
vt 0.470757 0.566010
vt 0.199499 0.815420
vt 0.176982 0.837250
vt 0.187527 0.827237
vt 0.182212 0.856304
vt 0.169361 0.853153
vt 0.439890 0.598627
vt 0.442305 0.580660
vt 0.861329 0.018686
vt 0.839128 0.018905
vt 0.835881 0.004321
vt 0.846004 0.004146
vt 0.184025 0.821705
vt 0.863559 0.036617
vt 0.840268 0.036855
vt 0.170511 0.827027
vt 0.182848 0.815215
vt 0.823672 0.036930
vt 0.823795 0.018974
vt 0.168337 0.815036
vt 0.824147 0.004374
vt 0.807324 0.036821
vt 0.808691 0.018873
vt 0.170791 0.803102
vt 0.184176 0.808756
vt 0.812586 0.004296
vt 0.395182 0.931077
vt 0.406632 0.928322
vt 0.411859 0.944008
vt 0.403096 0.946117
vt 0.187807 0.803312
vt 0.793710 0.036543
vt 0.796115 0.018617
vt 0.177499 0.793041
vt 0.421220 0.926682
vt 0.423025 0.942753
vt 0.193187 0.799710
vt 0.404447 0.910318
vt 0.420237 0.908543
vt 0.187441 0.786387
vt 0.437021 0.908247
vt 0.436726 0.926409
vt 0.199103 0.784150
vt 0.199499 0.798500
vt 0.434893 0.942543
vt 0.142735 0.592322
vt 0.092940 0.643560
vt 0.120170 0.577220
vt 0.823672 0.377209
vt 0.807324 0.377099
vt 0.793710 0.376822
vt 0.470757 0.938800
vt 0.454303 0.938783
vt 0.840267 0.377134
vt 0.395182 0.578877
vt 0.410972 0.577102
vt 0.091421 0.797335
vt 0.107875 0.797471
vt 0.107875 0.823974
vt 0.091421 0.827340
vt 0.440565 0.938575
vt 0.623571 0.039213
vt 0.662369 0.013545
vt 0.632902 0.053561
vt 0.863559 0.376896
vt 0.636178 0.071428
vt 0.662369 0.071456
vt 0.662369 0.411735
vt 0.636178 0.411707
vt 0.609607 0.029618
vt 0.593329 0.002600
vt 0.593135 0.026236
vt 0.562698 0.039149
vt 0.524288 0.013399
vt 0.576663 0.029583
vt 0.553368 0.053477
vt 0.524288 0.071310
vt 0.550091 0.071337
vt 0.959680 0.063175
vt 0.957991 0.005336
vt 0.976127 0.005379
vt 0.976127 0.063233
vt 0.715713 0.411607
vt 0.715713 0.354196
vt 0.742715 0.354196
vt 0.742715 0.411607
vt 0.690768 0.411607
vt 0.671675 0.411607
vt 0.671675 0.354196
vt 0.690768 0.354196
vt 0.925313 0.063618
vt 0.948605 0.062891
vt 0.948605 0.403360
vt 0.925313 0.404087
vt 0.786753 0.354196
vt 0.767660 0.354196
vt 0.767660 0.013268
vt 0.786753 0.013268
vt 0.690768 0.013268
vt 0.715714 0.013268
vt 0.502178 0.569734
vt 0.502178 0.910013
vt 0.472967 0.909982
vt 0.472967 0.569704
vt 0.742715 0.013268
vt 0.949608 0.774307
vt 0.949608 0.442222
vt 0.974750 0.444977
vt 0.974750 0.776554
vt 0.671675 0.013268
vt 0.949608 0.830229
vt 0.974750 0.832983
vt 0.767660 0.411607
vt 0.228412 0.715592
vt 0.202249 0.706100
vt 0.215940 0.686513
vt 0.232218 0.688975
vt 0.786753 0.411607
vt 0.925313 0.006284
vt 0.948605 0.005557
vt 0.163607 0.642273
vt 0.157988 0.615165
vt 0.201566 0.622571
vt 0.178392 0.608706
vt 0.196467 0.588139
vt 0.212816 0.609768
vt 0.195934 0.638822
vt 0.169344 0.634817
vt 0.182255 0.687526
vt 0.170700 0.662494
vt 0.196778 0.656050
vt 0.202666 0.680752
vt 0.220817 0.576245
vt 0.227973 0.602365
vt 0.144117 0.692752
vt 0.158736 0.669518
vt 0.232218 0.572679
vt 0.959680 0.403124
vt 0.111017 0.572519
vt 0.092940 0.572484
vt 0.121976 0.708439
vt 0.094891 0.714284
s 1
usemtl Lock
f 6/1/1 11/2/2 10/3/3 5/4/4
f 4/5/5 9/6/6 8/7/7 3/8/8
f 5/4/4 10/3/3 9/9/6 4/10/5
f 3/8/8 8/7/7 7/11/9
f 9/6/6 13/12/10 12/13/11 8/7/7
f 10/14/3 14/15/12 13/12/10 9/6/6
f 8/7/7 12/13/11 7/11/9
f 11/2/2 15/16/13 14/17/14 10/3/3
f 14/18/15 18/19/16 17/20/17 13/21/10
f 12/13/11 16/22/18 7/11/9
f 15/23/19 19/24/20 18/19/16 14/18/15
f 13/12/10 17/25/17 16/22/18 12/13/11
f 16/22/18 20/26/21 7/11/9
f 19/24/20 23/27/22 22/28/23 18/19/16
f 17/25/17 21/29/24 20/26/21 16/22/18
f 18/19/16 22/28/23 21/30/24 17/20/17
f 23/27/22 27/31/25 26/32/26 22/28/23
f 21/29/24 25/33/27 24/34/28 20/26/21
f 22/28/23 26/32/26 25/35/27 21/30/24
f 20/26/21 24/34/28 7/11/9
f 26/36/26 30/37/29 29/38/30 25/39/27
f 24/34/28 28/40/31 7/11/9
f 27/31/25 31/41/32 30/42/29 26/32/26
f 25/33/27 29/43/30 28/40/31 24/34/28
f 30/37/29 34/44/33 33/45/34 29/38/30
f 28/40/31 32/46/35 7/11/9
f 31/47/32 35/48/36 34/44/33 30/37/29
f 29/43/30 33/49/34 32/46/35 28/40/31
f 35/48/36 2/50/37 1/51/38 34/44/33
f 33/49/34 37/52/39 36/53/40 32/46/35
f 34/44/33 1/51/38 37/54/39 33/45/34
f 32/46/35 36/53/40 7/11/9
f 55/55/41 53/56/42 61/57/43
f 23/27/22 43/58/44 44/59/45 27/31/25
f 27/31/25 44/59/45 45/60/46 31/41/32
f 6/1/1 39/61/47 40/62/48 11/2/2
f 19/24/20 42/63/49 43/58/44 23/27/22
f 31/47/32 45/64/46 46/65/50 35/48/36
f 51/66/51 38/67/51 2/68/51 35/69/51
f 11/2/2 40/62/48 41/70/52 15/16/13
f 4/71/44 47/72/44 5/73/44
f 15/23/19 41/74/53 42/63/49 19/24/20
f 6/75/44 48/76/44 50/77/44 39/78/44
f 5/73/44 48/76/44 6/75/44
f 47/72/44 3/79/44 53/80/44
f 53/80/44 3/79/44 7/81/44
f 5/73/44 47/72/44 48/76/44
f 47/72/44 4/71/44 3/79/44
f 37/82/44 49/83/44 36/84/44
f 36/84/44 53/80/44 7/81/44
f 49/83/44 1/85/44 38/86/44
f 38/86/44 1/85/44 2/87/44
f 36/84/44 49/83/44 53/80/44
f 49/83/44 37/82/44 1/85/44
f 51/88/54 54/89/55 49/90/56 38/91/57
f 57/92/58 71/93/58 69/94/59 58/95/59
f 56/96/60 55/97/61 74/98/61 70/99/60
f 74/100/61 75/101/62 68/102/63 62/103/61
f 73/104/64 72/105/65 66/106/65 67/107/66
f 70/99/60 63/108/60 64/109/58 71/93/58
f 35/110/44 46/111/44 52/112/44 51/113/44
f 72/105/65 69/94/59 65/114/59 66/106/65
f 73/115/64 67/116/66 50/117/67 48/118/68
f 71/93/58 64/109/58 65/114/59 69/94/59
f 70/99/60 74/98/61 62/119/61 63/108/60
f 60/120/69 73/115/64 48/118/68 47/121/70
f 59/122/65 58/95/59 69/94/59 72/105/65
f 50/123/71 67/124/51 40/125/51 39/126/51
f 56/96/60 70/99/60 71/93/58 57/92/58
f 60/127/69 59/122/65 72/105/65 73/104/64
f 55/128/61 61/129/72 75/101/62 74/100/61
f 57/130/73 53/56/42 56/131/74
f 44/132/51 63/133/51 62/134/51 45/135/51
f 44/132/51 43/136/51 64/137/51 63/133/51
f 56/131/74 53/56/42 55/55/41
f 66/138/51 65/139/51 42/140/51 41/141/51
f 68/142/51 46/143/51 45/135/51 62/134/51
f 59/144/75 53/56/42 58/145/76
f 46/143/51 68/142/51 52/146/51
f 67/124/51 66/138/51 41/141/51 40/125/51
f 51/88/54 75/101/62 61/129/72 54/89/55
f 51/88/54 52/147/77 68/102/63 75/101/62
f 54/148/78 53/56/42 49/149/79
f 60/150/80 53/56/42 59/144/75
f 53/56/42 60/150/80 47/151/81
f 58/145/76 53/56/42 57/130/73
f 65/139/51 64/137/51 43/136/51 42/140/51
f 61/57/43 53/56/42 54/148/78
