# Blender 4.1.1
# www.blender.org
mtllib LockPick.mtl
o Plane.001
v -0.000000 2.869286 6.391137
v 0.000000 -2.869286 5.695728
v -0.000000 2.869286 4.493777
v 0.000000 -2.869286 5.189187
v 0.000000 0.000000 5.799081
v 0.000000 0.000000 5.085834
v -0.000000 3.512820 5.442457
v 0.000000 -2.869286 5.442457
v 0.000000 0.000000 5.442457
vn 1.0000 -0.0000 -0.0000
vt 0.146174 0.395585
vt 0.182171 0.692637
vt 0.155950 0.695814
vt 0.109253 0.400059
vt 0.102103 0.031909
vt 0.011961 0.110435
vt 0.208391 0.086631
vt 0.183094 0.391111
vt 0.208391 0.689459
s 0
usemtl SmallParts_Lock
f 9/1/1 8/2/1 4/3/1 6/4/1
f 7/5/1 9/1/1 6/4/1 3/6/1
f 1/7/1 5/8/1 9/1/1 7/5/1
f 5/8/1 2/9/1 8/2/1 9/1/1
